{"title":"Love Child - S03E02","uid":15116026,"size":1150759963,"categoryP":"video","categoryS":"tv_shows","magnet":"?xt=urn:btih:7cd73271b8060aee0787cc4a51b511b7af97f7bd&amp;dn=Love+Child+-+S03E02&amp;tr=udp%3A%2F%2Ftracker.leechers-paradise.org%3A6969&amp;tr=udp%3A%2F%2Fzer0day.ch%3A1337&amp;tr=udp%3A%2F%2Fopen.demonii.com%3A1337&amp;tr=udp%3A%2F%2Ftracker.coppersurfer.tk%3A6969&amp;tr=udp%3A%2F%2Fexodus.desync.com%3A6969","seeders":2,"leechers":0,"uploader":"Bullrout","files":1,"time":1467048663,"description":"Love Child - S03E02\r\n\r\nShirley fights to keep her job as Maggie learns the truth of their relationship, Joan uncovers McNaughton's part in Greg Mathieson's death, and Viv loses her twins all over again.\r\n\r\nComplete name : Love Child - S03E02.mkv\r\nFormat : Matroska\r\nFormat version : Version 4 / Version 2\r\nFile size : 1.07 GiB\r\nDuration : 46mn 22s\r\nOverall bit rate mode : Variable\r\nOverall bit rate : 3 308 Kbps\r\nEncoded date : UTC 2016-06-27 14:45:27\r\nWriting application : mkvmerge v9.2.0 ('Photograph') 64bit\r\nWriting library : libebml v1.3.3 + libmatroska v1.4.4\r\n\r\nVideo\r\nID : 2\r\nFormat : AVC\r\nFormat/Info : Advanced Video Codec\r\nFormat profile :   \r\nFormat settings, CABAC : Yes\r\nFormat settings, ReFrames : 3 frames\r\nCodec ID : V_MPEG4/ISO/AVC\r\nDuration : 46mn 22s\r\nBit rate mode : Variable\r\nBit rate : 2 922 Kbps\r\nMaximum bit rate : 3 000 Kbps\r\nWidth : 1 280 pixels\r\nHeight : 720 pixels\r\nDisplay aspect ratio : 16:9\r\nFrame rate mode : Constant\r\nFrame rate : 25.000 fps\r\nStandard : PAL\r\nColor space : YUV\r\nChroma subsampling : 4:2:0\r\nBit depth : 8 bits\r\nScan type : Progressive\r\nBits/(Pixel*Frame) : 0.127\r\nStream size : 969 MiB (88%)\r\nWriting library : x264 core 112\r\nDefault : Yes\r\nForced : No\r\nColor range : Limited\r\nColor primaries : BT.709\r\nTransfer characteristics : BT.709\r\nMatrix coefficients : BT.709\r\n\r\nAudio\r\nID : 1\r\nFormat : AC-3\r\nFormat/Info : Audio Coding 3\r\nMode extension : CM (complete main)\r\nFormat settings, Endianness : Big\r\nCodec ID : A_AC3\r\nDuration : 46mn 22s\r\nBit rate mode : Constant\r\nBit rate : 384 Kbps\r\nChannel(s) : 6 channels\r\nChannel positions : Front: L C R, Side: L R, LFE\r\nSampling rate : 48.0 KHz\r\nFrame rate : 31.250 fps (1536 spf)\r\nCompression mode : Lossy\r\nStream size : 127 MiB (12%)\r\nDefault : Yes\r\nForced : No","torrent":{"xt":"urn:btih:7cd73271b8060aee0787cc4a51b511b7af97f7bd","amp;dn":"Love+Child+-+S03E02","amp;tr":["udp%3A%2F%2Ftracker.leechers-paradise.org%3A6969","udp%3A%2F%2Fzer0day.ch%3A1337","udp%3A%2F%2Fopen.demonii.com%3A1337","udp%3A%2F%2Ftracker.coppersurfer.tk%3A6969","udp%3A%2F%2Fexodus.desync.com%3A6969"],"infoHash":"7cd73271b8060aee0787cc4a51b511b7af97f7bd","infoHashBuffer":{"type":"Buffer","data":[124,215,50,113,184,6,10,238,7,135,204,74,81,181,17,183,175,151,247,189]},"announce":[],"urlList":[]}}